<?xml version="1.0" encoding="UTF-8"?><svg version="1.1" viewBox="0 0 24 24" xmlns="http://www.w3.org/2000/svg" xmlns:xlink="http://www.w3.org/1999/xlink"><g stroke-linecap="round" stroke-width="2" stroke="#000" fill="none" stroke-linejoin="round"><path d="M14 2h-8l-8.74228e-08 3.55271e-15c-1.10457 4.82823e-08-2 .895431-2 2 0 0 0 0 0 0v16l2.30926e-14 3.01992e-07c1.66785e-07 1.10457.895431 2 2 2h12l-8.74228e-08-3.55271e-15c1.10457 4.82823e-08 2-.89543 2-2v-12Z"></path><polyline points="14,2 14,8 20,8"></polyline><line x1="16" x2="8" y1="13" y2="13"></line><line x1="16" x2="8" y1="17" y2="17"></line><polyline points="10,9 9,9 8,9"></polyline></g></svg>