<?xml version="1.0" encoding="UTF-8"?>
<svg version="1.1" viewBox="0 0 24 24" xmlns="http://www.w3.org/2000/svg" xmlns:xlink="http://www.w3.org/1999/xlink">
    <path d="M9 19c-5 1.5-5-2.5-7-3m14 6v-3.87l3.21142e-08-4.08226e-07c.075883-.964603-.266509-1.91529-.94-2.61 3.14-.35 6.44-1.54 6.44-7l9.1904e-08.000999958c0-1.39617-.536804-2.7389-1.49931-3.75028l1.20969e-07-3.24242e-07c.455831-1.2218.423351-2.57225-.0906897-3.77072 0 0-1.18-.35-3.91 1.48l1.03692e-06 2.81027e-07c-2.29199-.621178-4.70801-.621179-7-5.62055e-07 -2.73-1.83-3.91-1.48-3.91-1.48l1.2627e-07-2.94603e-07c-.513624 1.19835-.545856 2.54851-.0900002 3.77l-6.48496e-08 6.81144e-08c-.969873 1.0187-1.50748 2.37346-1.5 3.78 0 5.42 3.3 6.61 6.44 7l-2.15667e-07 2.22857e-07c-.66538.687564-1.00713 1.62555-.94 2.58v3.87" stroke-linecap="round" stroke-width="2" stroke="#000" fill="none" stroke-linejoin="round"></path>
</svg>