<?xml version="1.0" encoding="UTF-8"?><svg version="1.1" viewBox="0 0 24 24" xmlns="http://www.w3.org/2000/svg" xmlns:xlink="http://www.w3.org/1999/xlink"><path d="M589 164.6l-399.7 399.7 270.4 270.4 399.7-399.7 -23.4-247 -247-23.4Zm91 267.4c-48.5 0-88-39.5-88-88 0-48.5 39.5-88 88-88 48.5 0 88 39.5 88 88 0 48.5-39.5 88-88 88Z" fill="#D9D9D9"></path><path fill="#000" d="M680 256c-48.5 0-88 39.5-88 88 0 48.5 39.5 88 88 88 48.5 0 88-39.5 88-88 0-48.5-39.5-88-88-88Zm0 120c-17.7 0-32-14.3-32-32 0-17.7 14.3-32 32-32 17.7 0 32 14.3 32 32 0 17.7-14.3 32-32 32Z"></path><path d="M938 458.8l-29.6-312.6c-1.5-16.2-14.4-29-30.6-30.6l-312.6-29.6h-.4c-3.2 0-5.7 1-7.6 2.9l-468.3 468.3 5.73286e-08-5.72112e-08c-3.89361 3.88563-3.90007 10.192-.0144404 14.0856 .0048085.00481837.00962195.00963182.0144403.0144403l363.8 363.8 4.54972e-07 4.55082e-07c1.8809 1.88135 4.43982 2.92655 7.1 2.9 2.7 0 5.2-1 7.1-2.9l468.3-468.3c2-2.1 3-5 2.8-8Zm-478.3 375.9l-270.4-270.4 399.7-399.7 247 23.4 23.4 247 -399.7 399.7Z" fill="#000"></path></svg>