<?xml version="1.0" encoding="UTF-8"?><svg version="1.1" viewBox="0 0 24 24" xmlns="http://www.w3.org/2000/svg" xmlns:xlink="http://www.w3.org/1999/xlink"><path d="M23 3l2.97279e-08-2.09693e-08c-.957614.675477-2.01789 1.19211-3.14 1.53l9.66567e-08 1.11138e-07c-1.62369-1.86694-4.4534-2.06414-6.32035-.440457 -.994159.864623-1.55731 2.12303-1.53965 3.44046v1l3.07001e-07-7.96063e-09c-3.56934.0925541-6.94798-1.60803-9-4.53 0 0-4 9 5 13l-5.77015e-07 3.91677e-07c-2.05947 1.39797-4.51284 2.09893-7 2 9 5 20 0 20-11.5l1.84135e-07 5.58009e-05c-.000917433-.278546-.0276955-.556405-.0799894-.83l2.51661e-07-2.48188e-07c1.02061-1.00652 1.74083-2.27732 2.07999-3.67006Z" stroke-linecap="round" stroke-width="2" stroke="#000" fill="none" stroke-linejoin="round"></path></svg>